<?xml version="1.0" encoding="UTF-8" standalone="no"?>
<!-- Created with Inkscape (http://www.inkscape.org/) -->

<svg
   width="256"
   height="256"
   viewBox="0 0 67.733332 67.733332"
   version="1.1"
   id="svg1"
   xml:space="preserve"
   inkscape:version="1.4.4 (dcaf3e7, 2026-05-05)"
   sodipodi:docname="king_tile.svg"
   xmlns:inkscape="http://www.inkscape.org/namespaces/inkscape"
   xmlns:sodipodi="http://sodipodi.sourceforge.net/DTD/sodipodi-0.dtd"
   xmlns:xlink="http://www.w3.org/1999/xlink"
   xmlns="http://www.w3.org/2000/svg"
   xmlns:svg="http://www.w3.org/2000/svg"><sodipodi:namedview
     id="namedview1"
     pagecolor="#ffffff"
     bordercolor="#000000"
     borderopacity="0.25"
     inkscape:showpageshadow="2"
     inkscape:pageopacity="0.0"
     inkscape:pagecheckerboard="0"
     inkscape:deskcolor="#d1d1d1"
     inkscape:document-units="mm"
     inkscape:zoom="1.9477379"
     inkscape:cx="125.53024"
     inkscape:cy="117.82899"
     inkscape:window-width="1920"
     inkscape:window-height="991"
     inkscape:window-x="-9"
     inkscape:window-y="-9"
     inkscape:window-maximized="1"
     inkscape:current-layer="svg1" /><defs
     id="defs1"><linearGradient
       id="linearGradient15"
       inkscape:collect="always"><stop
         style="stop-color:#000000;stop-opacity:0;"
         offset="0.35454544"
         id="stop17" /><stop
         style="stop-color:#000000;stop-opacity:1;"
         offset="1"
         id="stop16" /></linearGradient><linearGradient
       id="swatch11"
       inkscape:swatch="solid"><stop
         style="stop-color:#000000;stop-opacity:1;"
         offset="0"
         id="stop11" /></linearGradient><clipPath
       clipPathUnits="userSpaceOnUse"
       id="clipPath5"><rect
         style="fill:#000000;stroke:#000000;stroke-width:0;stroke-linejoin:bevel;paint-order:stroke markers fill;stop-color:#000000"
         id="rect5-4"
         width="20"
         height="200"
         x="530"
         y="595" /></clipPath><style
       id="style1">.cls-1,.cls-2{fill:#e6e6e6;stroke:#000;stroke-linecap:round;stroke-width:14px;}.cls-2{stroke-linejoin:round;}</style><linearGradient
       inkscape:collect="always"
       xlink:href="#linearGradient15"
       id="linearGradient17"
       x1="0.68946582"
       y1="208.79732"
       x2="371.93436"
       y2="208.79732"
       gradientUnits="userSpaceOnUse"
       spreadMethod="reflect" /><linearGradient
       inkscape:collect="always"
       xlink:href="#linearGradient15"
       id="linearGradient20"
       gradientUnits="userSpaceOnUse"
       x1="0.68946582"
       y1="208.79732"
       x2="371.93436"
       y2="208.79732"
       spreadMethod="reflect" /><linearGradient
       inkscape:collect="always"
       xlink:href="#linearGradient15"
       id="linearGradient21"
       gradientUnits="userSpaceOnUse"
       x1="0.68946582"
       y1="208.79732"
       x2="371.93436"
       y2="208.79732"
       spreadMethod="reflect" /><linearGradient
       inkscape:collect="always"
       xlink:href="#linearGradient15"
       id="linearGradient22"
       gradientUnits="userSpaceOnUse"
       x1="0.68946582"
       y1="208.79732"
       x2="371.93436"
       y2="208.79732"
       spreadMethod="reflect" /><linearGradient
       inkscape:collect="always"
       xlink:href="#linearGradient15"
       id="linearGradient23"
       gradientUnits="userSpaceOnUse"
       x1="0.68946582"
       y1="208.79732"
       x2="371.93436"
       y2="208.79732"
       spreadMethod="reflect" /><linearGradient
       inkscape:collect="always"
       xlink:href="#linearGradient15"
       id="linearGradient24"
       gradientUnits="userSpaceOnUse"
       x1="0.68946582"
       y1="208.79732"
       x2="371.93436"
       y2="208.79732"
       spreadMethod="reflect" /><linearGradient
       inkscape:collect="always"
       xlink:href="#linearGradient15"
       id="linearGradient25"
       gradientUnits="userSpaceOnUse"
       x1="0.68946582"
       y1="208.79732"
       x2="371.93436"
       y2="208.79732"
       spreadMethod="reflect" /><linearGradient
       inkscape:collect="always"
       xlink:href="#linearGradient15"
       id="linearGradient26"
       gradientUnits="userSpaceOnUse"
       x1="0.68946582"
       y1="208.79732"
       x2="371.93436"
       y2="208.79732"
       spreadMethod="reflect" /></defs><rect
     style="fill:#811c15;fill-opacity:0.71875;stroke-width:301.775"
     id="rect17"
     width="769.11908"
     height="775.98401"
     x="252.66335"
     y="255.86301"
     transform="matrix(0.08806612,0,0,0.08728702,-22.25108,-22.333519)" /><g
     inkscape:label="Layer 1"
     inkscape:groupmode="layer"
     id="layer1"><g
       id="Layer_1-2"
       data-name="Layer 1"
       transform="matrix(0.13760277,0,0,0.13711569,-53.315771,-55.293501)"><g
         id="g1"
         transform="matrix(1.035869,0,0,1.0465789,440.58582,434.20951)"
         style="fill:url(#linearGradient17)"><path
           class="cls-1"
           d="M 249.9479,100.82779 282.29349,47.301739"
           id="path1"
           style="fill:url(#linearGradient20)" /><polygon
           class="cls-1"
           points="229.96,40.13 238.56,47.9 238.56,64.13 228.02,70.89 208.54,71.54 208.54,127.33 196.37,132.5 193.37,132.5 190.37,132.5 177.2,127.33 177.2,70.89 154.58,70.73 147.18,63.28 147.18,48.19 155.71,39.61 177.2,39.48 177.2,21.17 187.37,7 197.37,7 208.54,21.17 208.54,39.67 "
           id="polygon1"
           transform="matrix(0.85382124,0.52521275,-0.515961,0.85382124,129.38656,-73.084903)"
           style="fill:url(#linearGradient21)" /><path
           class="cls-1"
           d="m 169.51474,233.92999 c 0,0 85.87805,-44.99274 88.85749,-82.28996 0,0 4.85278,-29.62126 -14.16182,-41.31774 -19.01459,-11.696492 -42.89051,6.22302 -42.89051,6.22302 -31.49708,19.75511 -31.80516,117.38468 -31.80516,117.38468"
           id="path2"
           style="fill:url(#linearGradient22)" /><path
           class="cls-2"
           d="M 7.6894658,264.3196 C 39.863537,329.78792 134.94507,388.27561 207.35556,387.1406 l 40.24496,-66.59805 c 0,0 111.36801,9.94576 117.33383,-64.67955 -0.68393,-85.19256 -108.23246,-112.25426 -175.10623,-55.54795 v 0 C 199.63924,108.5311 126.55174,24.442676 60.683698,68.708689 -2.3344626,108.23929 50.76705,193.03406 50.76705,193.03406 Z"
           id="path3"
           style="fill:url(#linearGradient23)" /><path
           class="cls-2"
           d="m 47.898305,197.78132 c 69.534805,3.64311 164.616345,62.1308 199.666105,122.821"
           id="path4"
           style="fill:url(#linearGradient24)" /><path
           class="cls-2"
           d="m 27.811943,231.02058 c 69.534812,3.64311 164.616347,62.1308 199.666097,122.821"
           id="path5"
           style="fill:url(#linearGradient25)" /><path
           class="cls-2"
           d="M 7.6894658,264.3196 C 77.224274,267.96271 172.3058,326.45041 207.35556,387.1406"
           id="path6"
           style="fill:url(#linearGradient26)" /></g></g></g></svg>
